<?xml version="1.0" encoding="UTF-8" standalone="no"?>
<!-- Created with Inkscape (http://www.inkscape.org/) -->

<svg
   version="1.1"
   id="svg2"
   xml:space="preserve"
   width="1600"
   height="1600"
   viewBox="0 0 1600 1600"
   sodipodi:docname="office_teamwork_illustrations_orlany_08_0905.ai"
   xmlns:inkscape="http://www.inkscape.org/namespaces/inkscape"
   xmlns:sodipodi="http://sodipodi.sourceforge.net/DTD/sodipodi-0.dtd"
   xmlns="http://www.w3.org/2000/svg"
   xmlns:svg="http://www.w3.org/2000/svg"><defs
     id="defs6"><clipPath
       clipPathUnits="userSpaceOnUse"
       id="clipPath16"><path
         d="M 0,1200 H 1200 V 0 H 0 Z"
         id="path14" /></clipPath></defs><sodipodi:namedview
     id="namedview4"
     pagecolor="#ffffff"
     bordercolor="#666666"
     borderopacity="1.0"
     inkscape:pageshadow="2"
     inkscape:pageopacity="0.0"
     inkscape:pagecheckerboard="0" /><g
     id="g8"
     inkscape:groupmode="layer"
     inkscape:label="office_teamwork_illustrations_orlany_08_0905"
     transform="matrix(1.3333333,0,0,-1.3333333,0,1600)"><g
       id="g10"><g
         id="g12"
         clip-path="url(#clipPath16)"><g
           id="g18"
           transform="translate(210.974,260.072)"><path
             d="m 0,0 -2.711,-54.716 c -0.091,-1.484 0.114,-2.97 0.603,-4.372 0.489,-1.404 1.253,-2.694 2.247,-3.794 0.993,-1.11 2.197,-2 3.54,-2.64 1.343,-0.63 2.799,-0.99 4.283,-1.05 l 107.235,-5.6 c 1.126,-0.06 2.255,0.09 3.32,0.47 1.065,0.37 2.044,0.95 2.881,1.71 0.836,0.76 1.513,1.68 1.99,2.7 0.477,1.02 0.745,2.13 0.788,3.26 1.694,31.676 -3.897,57.425 -35.745,59.121 z"
             style="fill:#000000;fill-opacity:1;fill-rule:nonzero;stroke:none"
             id="path20" /></g><g
           id="g22"
           transform="translate(209.959,208.5739)"><path
             d="m 0,0 c -2.541,-2.541 1.524,-6.1 4.235,-3.559 8.301,8.3 21.346,-1.693 31.171,0.507 3.388,0.849 6.268,2.882 9.487,4.237 7.115,3.049 12.367,-1.696 18.635,-4.066 6.268,-2.371 12.197,-0.337 19.99,1.863 11.52,3.389 26.089,-3.219 37.269,-5.93 3.558,-0.845 4.575,4.744 1.187,5.593 C 111.132,1.356 97.579,7.452 86.228,5.76 80.469,4.741 75.048,0.337 68.949,1.185 62.85,2.034 58.785,6.775 53.025,7.793 47.265,8.808 45.74,7.623 42.013,6.097 34.898,2.878 30.832,1.693 23.039,3.556 15.247,5.419 6.776,6.775 0,0"
             style="fill:#ffffff;fill-opacity:1;fill-rule:nonzero;stroke:none"
             id="path24" /></g><g
           id="g26"
           transform="translate(286.02,254.653)"><path
             d="m 0,0 c -6.045,-3.935 -11.716,-8.413 -16.941,-13.385 -2.372,-2.2 1.186,-5.93 3.557,-3.556 4.931,4.638 10.259,8.833 15.925,12.534 C 5.251,-2.54 2.71,1.863 0,0"
             style="fill:#ffffff;fill-opacity:1;fill-rule:nonzero;stroke:none"
             id="path28" /></g><g
           id="g30"
           transform="translate(300.25,252.1129)"><path
             d="m 0,0 c -5.841,-3.918 -11.187,-8.528 -15.924,-13.723 -2.202,-2.374 1.355,-5.93 3.557,-3.559 4.463,4.911 9.529,9.237 15.078,12.874 C 5.421,-2.545 2.88,1.863 0,0"
             style="fill:#ffffff;fill-opacity:1;fill-rule:nonzero;stroke:none"
             id="path32" /></g><g
           id="g34"
           transform="translate(400.71,262.9539)"><path
             d="m 0,0 -0.339,-54.72 c 0,-3.009 1.196,-5.898 3.324,-8.027 2.129,-2.127 5.016,-3.317 8.026,-3.317 l 107.405,-0.68 c 2.278,0.04 4.45,0.96 6.061,2.57 1.611,1.615 2.534,3.787 2.58,6.065 0.167,31.682 -6.778,57.091 -38.457,57.261 z"
             style="fill:#000000;fill-opacity:1;fill-rule:nonzero;stroke:none"
             id="path36" /></g><g
           id="g38"
           transform="translate(402.066,211.793)"><path
             d="m 0,0 c -0.233,-0.281 -0.41,-0.6 -0.519,-0.948 -0.11,-0.344 -0.15,-0.71 -0.119,-1.072 0.032,-0.362 0.134,-0.713 0.302,-1.036 0.168,-0.323 0.397,-0.61 0.675,-0.841 0.278,-0.234 0.599,-0.411 0.946,-0.522 0.346,-0.11 0.71,-0.149 1.072,-0.117 0.362,0.032 0.714,0.135 1.036,0.302 0.323,0.167 0.609,0.397 0.842,0.674 8.132,8.978 21.853,-0.507 31.679,2.371 3.389,1.018 6.1,3.389 9.318,4.915 7.115,3.389 12.705,-1.019 18.975,-3.219 6.267,-2.204 12.534,0.507 20.16,3.219 11.519,4.066 26.597,-1.863 37.945,-4.067 3.56,-0.678 4.404,5.082 0.849,5.93 C 112.316,7.622 98.426,13.211 86.908,10.67 81.148,9.485 75.896,4.574 69.626,5.081 63.359,5.589 59.122,10.333 53.196,11.011 49.342,11.433 45.46,10.539 42.184,8.47 35.066,4.74 31.173,3.385 23.039,4.911 14.908,6.437 6.607,7.281 0,0"
             style="fill:#ffffff;fill-opacity:1;fill-rule:nonzero;stroke:none"
             id="path40" /></g><g
           id="g42"
           transform="translate(475.929,261.091)"><path
             d="m 0,0 c -5.876,-4.134 -11.324,-8.843 -16.263,-14.063 -0.291,-0.217 -0.533,-0.497 -0.706,-0.817 -0.174,-0.319 -0.277,-0.67 -0.306,-1.036 -0.024,-0.362 0.029,-0.727 0.157,-1.068 0.124,-0.341 0.326,-0.649 0.581,-0.908 0.26,-0.256 0.568,-0.455 0.909,-0.582 0.341,-0.128 0.706,-0.181 1.068,-0.156 0.366,0.028 0.717,0.131 1.036,0.305 0.32,0.174 0.6,0.415 0.816,0.706 4.763,4.815 9.859,9.287 15.249,13.382 C 5.082,-2.374 2.541,2.033 0,0"
             style="fill:#ffffff;fill-opacity:1;fill-rule:nonzero;stroke:none"
             id="path44" /></g><g
           id="g46"
           transform="translate(490.327,259.227)"><path
             d="m 0,0 c -5.692,-4.173 -10.866,-9.006 -15.415,-14.4 -2.034,-2.541 1.526,-6.1 3.559,-3.559 4.248,5.071 9.081,9.62 14.397,13.552 C 5.252,-2.544 2.711,2.03 0,0"
             style="fill:#ffffff;fill-opacity:1;fill-rule:nonzero;stroke:none"
             id="path48" /></g><g
           id="g50"
           transform="translate(500.152,434.562)"><path
             d="m 0,0 c 5.929,-27.782 16.771,-53.702 19.652,-82.502 1.327,-15.153 1.554,-30.384 0.678,-45.568 -0.508,-13.216 0,-28.801 -7.963,-38.627 -7.964,-9.826 -18.634,-11.519 -30.831,-13.382 -12.197,-1.863 -24.226,-1.863 -36.931,-2.204 -12.707,-0.337 -25.412,-0.848 -38.118,-1.015 -5.251,-0.17 -10.503,-0.17 -14.738,4.912 -4.235,5.081 -4.574,12.029 -4.743,18.804 -0.17,17.959 1.016,37.608 -1.694,53.872 -2.711,16.263 -4.236,32.697 -5.591,48.96 -0.476,4.922 -0.804,9.844 -1.122,14.624 l -0.064,0.962 c -1.016,-9.826 -2.202,-19.823 -4.065,-29.479 -3.05,-15.245 -8.64,-29.308 -12.875,-44.045 -2.261,-7.236 -3.849,-14.667 -4.744,-22.194 -1.017,-7.452 -1.355,-14.907 -3.727,-21.852 -7.454,-22.871 -27.952,-29.308 -46.248,-30.323 -24.564,-1.189 -49.806,1.692 -74.201,5.589 -9.995,1.526 -20.667,4.067 -27.105,13.893 -6.437,9.822 -7.115,22.53 -3.388,35.064 3.727,12.537 11.689,21.348 16.093,34.223 4.405,12.874 5.252,27.441 7.285,40.997 8.7,59.053 26.155,117.78 42.252,171.932 l 0.608,2.047 c 16.263,54.72 28.555,100.611 31.216,145.324 20.583,-1.419 9.227,-8.517 75.586,1.42 20.76,7.274 26.26,12.242 40.632,17.92 22.023,14.401 15.437,8.694 26.26,17.034 1.842,-0.536 3.269,4.127 4.259,2.484 1.057,-0.753 8.08,6.82 8.694,5.678 4.744,0.848 10.025,11.824 11.888,6.742 12.42,-43.293 15.429,-86.147 18.137,-147.304 C -12.534,109.099 -11.349,53.535 0,0"
             style="fill:#436fff;fill-opacity:1;fill-rule:nonzero;stroke:none"
             id="path52" /></g><g
           id="g54"
           transform="translate(397.83,905.855)"><path
             d="m 0,0 c -3.474,0.06 -6.935,0.457 -10.334,1.186 -0.469,0.049 -0.924,0.197 -1.333,0.433 -0.41,0.235 -0.766,0.554 -1.045,0.936 -0.279,0.381 -0.475,0.817 -0.575,1.278 -0.101,0.462 -0.104,0.94 -0.009,1.403 0.095,0.463 0.286,0.901 0.56,1.285 0.274,0.385 0.626,0.709 1.033,0.949 0.406,0.241 0.859,0.394 1.328,0.45 0.469,0.055 0.945,0.012 1.397,-0.127 13.552,-2.881 26.597,0.847 33.543,9.486 10.503,13.383 3.728,35.068 -8.809,46.249 -12.537,11.181 -31.172,12.536 -46.926,4.065 -0.795,-0.38 -1.703,-0.453 -2.548,-0.202 -0.846,0.25 -1.567,0.805 -2.027,1.558 -0.391,0.82 -0.468,1.754 -0.219,2.628 0.25,0.873 0.81,1.625 1.575,2.115 C -16.093,83.348 5.93,81.316 20.33,68.61 34.731,55.904 42.861,29.646 29.816,13.213 23.21,4.743 12.198,0 0,0"
             style="fill:#000000;fill-opacity:1;fill-rule:nonzero;stroke:none"
             id="path56" /></g><g
           id="g58"
           transform="translate(430.695,895.3519)"><path
             d="m 0,0 c 2.541,-2.711 17.619,-8.81 14.908,-6.099 -6.607,6.776 5.252,24.734 6.948,32.357 1.693,7.623 2.371,14.399 0.508,21.176 -1.863,6.776 -4.745,8.64 -7.963,12.536 -2.328,2.46 -4.269,5.259 -5.76,8.301 -0.756,4.08 -1.15,8.218 -1.185,12.367 0.17,2.879 0.507,5.59 0.507,8.301 -0.507,11.858 -12.196,14.399 -22.531,15.416 -6.437,0.508 -12.028,-0.508 -18.465,2.202 -3.727,1.694 -6.776,4.405 -10.334,6.268 -5.149,2.904 -11.049,4.202 -16.941,3.727 -12.875,-1.355 -26.427,-10.842 -33.881,-21.345 -3.212,-4.354 -5.147,-9.516 -5.591,-14.908 -0.677,-8.979 4.235,-17.11 4.744,-26.089 0.066,-1.814 -0.047,-3.63 -0.339,-5.421 -0.339,-1.524 -0.847,-3.219 -1.355,-4.913 -4.744,-11.181 -18.466,-14.06 -26.089,-24.564 -7.624,-10.503 -7.115,-20.668 -7.115,-32.187 -0.942,-2.278 -0.942,-4.837 0,-7.115 0.169,-2.541 0.169,-5.083 0.169,-7.285 0,-2.202 6.099,-3.896 5.93,0 v 2.202 c 2.12,-0.537 4.366,-0.233 6.268,0.847 h 0.169 c 1.019,0.42 1.929,1.064 2.662,1.886 0.734,0.821 1.272,1.798 1.573,2.858 2.372,2.371 6.776,4.574 8.978,6.098 4.093,2.908 8.463,5.404 13.045,7.455 6.946,2.54 14.569,2.541 20.159,7.284 0.23,-0.469 0.583,-0.867 1.022,-1.151 0.439,-0.284 0.946,-0.443 1.469,-0.46 0.522,-0.018 1.039,0.107 1.496,0.361 0.456,0.254 0.835,0.628 1.096,1.081 6.945,11.689 4.574,27.274 4.574,40.149 0,8.809 -0.847,18.804 1.863,27.275 3.727,12.197 13.892,13.553 24.903,14.061 0.699,0.029 1.366,0.297 1.89,0.76 0.525,0.463 0.874,1.091 0.99,1.781 1.556,-0.707 3.214,-1.165 4.913,-1.356 0.912,-0.778 1.941,-1.407 3.049,-1.863 2.269,-0.597 4.398,-1.633 6.269,-3.049 l 2.541,-2.203 h 0.169 c 0,-0.044 0.018,-0.088 0.049,-0.119 0.032,-0.032 0.075,-0.05 0.12,-0.05 0,-0.169 0.17,-0.339 0.17,-0.678 0.306,-1.141 0.839,-2.209 1.566,-3.141 0.728,-0.931 1.635,-1.706 2.669,-2.28 0.169,-1.524 0.508,-3.049 0.678,-3.896 1.199,-5.966 3.623,-11.619 7.115,-16.602 -0.21,-0.541 -0.323,-1.114 -0.337,-1.694 -0.416,-1.622 -0.33,-3.331 0.245,-4.903 0.574,-1.572 1.611,-2.934 2.97,-3.906 L 0,38.286 C -1.185,36.084 -3.385,34.22 -4.574,31.848 -5.759,29.477 -6.096,26.766 -7.622,24.733 -9.147,22.7 -12.874,21.345 -15.245,19.99 -23.546,15.755 -19.142,4.913 -11.857,3.727 -9.658,3.266 -7.544,2.466 -5.589,1.355 -4.354,0.643 -2.949,0.291 -1.522,0.338 Z"
             style="fill:#000000;fill-opacity:1;fill-rule:nonzero;stroke:none"
             id="path60" /></g><g
           id="g62"
           transform="translate(372.25,953.628)"><path
             d="m 0,0 c -6.437,2.541 -14.907,1.524 -16.093,-6.607 -0.339,-3.219 -0.339,-6.268 3.219,-7.454 1.609,-0.647 3.344,-0.922 5.074,-0.804 1.731,0.117 3.413,0.623 4.92,1.481 1.209,0.777 2.138,1.918 2.656,3.258 0.518,1.339 0.596,2.809 0.224,4.196 -1.016,3.219 -4.912,4.405 -7.962,4.236 -3.049,-0.17 -5.929,-2.542 -5.251,-5.76 0.188,-0.708 0.55,-1.357 1.053,-1.89 0.503,-0.532 1.131,-0.931 1.827,-1.159 1.863,-0.678 3.727,0 5.59,-0.339 1.864,-0.339 4.574,4.404 1.355,4.912 -1.425,0.504 -2.979,0.504 -4.404,0 h -0.509 c -0.339,-0.847 0,-1.185 0.678,-0.847 0.678,0.339 1.355,0 1.864,-0.169 0.508,-0.169 1.016,-1.694 0,-2.372 -1.406,-0.559 -2.961,-0.618 -4.405,-0.169 -1.356,0.169 -1.016,0.169 -1.016,1.525 0.036,1.173 0.452,2.302 1.185,3.218 2.033,2.033 6.438,0.678 8.64,-0.169 C 0.848,-5.76 3.05,-1.186 0,0"
             style="fill:#ffffff;fill-opacity:1;fill-rule:nonzero;stroke:none"
             id="path64" /></g><g
           id="g66"
           transform="translate(363.779,903.653)"><path
             d="m 0,0 c -2.54,-0.338 0.339,-0.847 1.356,-1.693 1.4,-1.113 2.871,-2.131 4.404,-3.05 5.044,-2.548 10.488,-4.21 16.094,-4.913 4.629,-0.957 9.392,-1.072 14.061,-0.339 2.203,0.339 9.995,4.574 11.52,4.235 l -3.558,2.881 c 2.372,2.202 2.88,3.049 1.186,2.541 l -2.371,-0.509 -3.897,-0.846 c -4.913,-0.848 -2.88,-8.302 1.863,-7.285 4.744,1.016 13.045,1.524 10.504,8.131 -0.274,0.776 -0.777,1.451 -1.443,1.935 C 49.054,1.572 48.257,1.842 47.435,1.864 43.708,2.372 40.489,-1.016 37.101,-2.032 30.325,-3.896 23.209,-2.71 16.603,-0.677 9.996,1.356 8.132,3.219 3.897,5.76 2.22,7.082 0.09,7.69 -2.032,7.455 -6.776,6.777 -4.743,-0.677 0,0"
             style="fill:#436fff;fill-opacity:1;fill-rule:nonzero;stroke:none"
             id="path68" /></g><g
           id="g70"
           transform="translate(369.03,905.348)"><path
             d="m 0,0 c -3.727,6.268 -7.454,13.891 -15.077,15.755 -7.623,1.863 -20.329,-1.525 -29.138,-2.881 -0.385,-0.091 -0.737,-0.285 -1.02,-0.56 -0.284,-0.275 -0.488,-0.621 -0.592,-1.002 -0.104,-0.381 -0.104,-0.783 10e-4,-1.164 0.105,-0.38 0.31,-0.726 0.594,-1 11.012,-8.471 27.106,-19.821 41.505,-12.706 0.339,0 0.508,0.339 0.678,0.508 C -2.88,-2.88 1.186,-2.033 0,0"
             style="fill:#436fff;fill-opacity:1;fill-rule:nonzero;stroke:none"
             id="path72" /></g><g
           id="g74"
           transform="translate(560.461,892.98)"><path
             d="M 0,0 C 4.915,4.743 17.282,13.044 11.182,21.515 7.456,27.105 -2.2,24.056 -6.607,21.176 -18.126,14.23 -25.071,2.202 -36.253,-5.082 c -11.181,-7.285 -24.056,-12.706 -36.253,-18.127 -55.227,-24.056 -111.131,-46.756 -167.205,-69.118 -3.049,-1.186 -1.694,-6.099 1.356,-4.913 46.417,18.465 92.835,37.27 138.915,56.921 21.175,9.148 43.198,17.449 63.187,29.307 8.471,5.083 14.401,12.198 21.345,18.805 4.237,4.235 11.519,12.705 17.96,11.519 C 13.045,17.618 -0.848,6.268 -3.556,3.727 -4.052,3.255 -4.336,2.606 -4.354,1.923 -4.368,1.24 -4.113,0.579 -3.641,0.085 -3.169,-0.41 -2.519,-0.696 -1.838,-0.712 -1.153,-0.728 -0.493,-0.472 0,0"
             style="fill:#000000;fill-opacity:1;fill-rule:nonzero;stroke:none"
             id="path76" /></g><g
           id="g78"
           transform="translate(249.429,784.7289)"><path
             d="m 0,0 c -11.519,-21.176 -15.246,-50.143 0.678,-70.303 18.974,-24.227 56.582,-25.075 84.534,-25.242 16.602,-0.17 32.019,1.356 47.943,6.438 15.924,5.081 28.969,13.381 42.691,21.682 30.046,18.123 59.167,37.743 87.243,58.786 24.734,18.803 46.42,41.165 70.136,61.325 2.374,2.202 -1.186,5.76 -3.726,3.727 C 310.694,40.319 293.075,22.87 274.271,6.946 c -22.36,-19.144 -47.094,-35.578 -71.491,-51.5 -24.393,-15.923 -51.837,-35.238 -81.822,-42.861 -15.416,-3.726 -31.171,-3.389 -46.926,-2.878 -15.755,0.508 -33.543,2.2 -48.79,8.467 C -7.792,-68.27 -11.181,-31.172 4.405,-2.541 5.93,0.339 1.525,2.88 0,0"
             style="fill:#000000;fill-opacity:1;fill-rule:nonzero;stroke:none"
             id="path80" /></g><g
           id="g82"
           transform="translate(254.004,782.864)"><path
             d="m 0,0 c 19.482,21.854 58.615,33.205 86.398,21.854 2.88,-1.186 4.235,3.727 1.355,4.913 C 71.829,33.374 51.67,31.511 35.237,27.445 27.275,25.412 20.837,20.668 13.553,16.941 7.022,13.576 1.165,9.04 -3.727,3.558 -5.76,1.187 -2.202,-2.54 0,0"
             style="fill:#000000;fill-opacity:1;fill-rule:nonzero;stroke:none"
             id="path84" /></g><g
           id="g86"
           transform="translate(420.701,684.4399)"><path
             d="m 0,0 c 1.524,-13.045 -3.558,-23.209 -12.876,-32.02 -3.141,-2.764 -5.68,-6.146 -7.458,-9.936 -1.777,-3.786 -2.756,-7.903 -2.875,-12.087 -2.033,-25.241 -0.508,-50.82 -0.339,-76.061 0.169,-25.242 -4.235,-53.365 -8.979,-79.962 l -13.891,-79.113 c -0.508,-3.218 4.404,-4.574 4.913,-1.355 l 14.23,80.639 c 4.404,25.578 8.809,50.483 8.809,76.402 0,25.919 -1.355,51.161 0.169,76.743 0.509,7.622 1.694,13.719 7.115,19.478 5.421,5.763 6.607,5.763 9.318,9.489 C 3.91,-19.749 6.394,-9.809 5.082,0 4.744,3.218 -0.339,3.218 0,0"
             style="fill:#000000;fill-opacity:1;fill-rule:nonzero;stroke:none"
             id="path88" /></g><g
           id="g90"
           transform="translate(208.941,291.073)"><path
             d="m 0,0 c 5.76,-5.926 13.045,-6.604 20.837,-6.604 12.706,-0.17 25.581,0.337 38.286,0.508 3.219,0.17 3.219,5.252 0,5.081 L 30.493,-1.522 C 21.684,-1.522 10.334,-3.385 3.727,3.56 1.355,5.93 -2.202,2.204 0,0"
             style="fill:#000000;fill-opacity:1;fill-rule:nonzero;stroke:none"
             id="path92" /></g><g
           id="g94"
           transform="translate(288.391,282.4359)"><path
             d="m 0,0 c 6.14,-1.153 12.398,-1.551 18.635,-1.185 3.388,0.166 3.388,5.248 0,5.081 C 12.855,3.556 7.056,3.9 1.355,4.911 -1.863,5.419 -3.218,0.507 0,0"
             style="fill:#000000;fill-opacity:1;fill-rule:nonzero;stroke:none"
             id="path96" /></g><g
           id="g98"
           transform="translate(444.418,283.958)"><path
             d="m 0,0 c 14.741,10.504 31.679,7.286 47.435,13.552 12.707,5.086 13.722,17.282 12.196,29.309 -0.337,3.218 -5.419,3.389 -5.081,0 C 55.398,35.746 56.583,26.768 50.823,21.349 45.064,15.927 38.119,16.264 31.849,15.419 19.652,13.723 7.626,11.689 -2.541,4.408 -5.082,2.545 -2.711,-1.863 0,0"
             style="fill:#000000;fill-opacity:1;fill-rule:nonzero;stroke:none"
             id="path100" /></g><g
           id="g102"
           transform="translate(346.329,634.9709)"><path
             d="m 0,0 c -8.696,-48.112 -15.755,-96.505 -21.176,-145.182 -0.508,-3.389 4.574,-3.218 5.082,0 5.421,48.113 12.536,96.055 21.007,143.827 C 5.59,1.863 0.677,3.219 0,0"
             style="fill:#ffffff;fill-opacity:1;fill-rule:nonzero;stroke:none"
             id="path104" /></g><g
           id="g106"
           transform="translate(318.547,450.148)"><path
             d="m 0,0 c -6.783,-27.623 -11.539,-55.706 -14.23,-84.025 -0.339,-3.218 4.743,-3.218 5.082,0 2.635,27.868 7.335,55.501 14.061,82.669 C 5.591,1.863 0.678,3.219 0,0"
             style="fill:#ffffff;fill-opacity:1;fill-rule:nonzero;stroke:none"
             id="path108" /></g><g
           id="g110"
           transform="translate(441.367,634.2939)"><path
             d="m 0,0 c 4.135,-90.792 18.049,-180.87 41.505,-268.678 0.181,-0.653 0.611,-1.206 1.2,-1.54 0.585,-0.334 1.284,-0.419 1.934,-0.241 0.653,0.181 1.206,0.61 1.54,1.199 0.333,0.589 0.419,1.285 0.238,1.934 C 23.006,-179.973 9.145,-90.341 5.082,0 4.912,3.219 -0.17,3.219 0,0"
             style="fill:#ffffff;fill-opacity:1;fill-rule:nonzero;stroke:none"
             id="path112" /></g><g
           id="g114"
           transform="translate(361.407,899.2479)"><path
             d="m 0,0 c -12.874,-3.219 -25.919,-6.607 -37.608,-13.383 -11.689,-6.776 -20.837,-17.957 -29.477,-28.63 -9.108,-11.115 -17.537,-22.769 -25.242,-34.898 -7.284,-11.52 -16.602,-23.209 -20.837,-36.084 -1.017,-3.219 3.897,-4.404 4.913,-1.355 3.896,12.028 12.705,23.039 19.482,33.542 7.718,12.229 16.147,23.995 25.242,35.237 7.962,9.826 16.263,20.499 27.275,27.105 11.011,6.608 24.733,10.334 37.608,13.553 0.652,0.18 1.205,0.611 1.538,1.199 0.334,0.587 0.421,1.284 0.241,1.935 C 2.955,-1.127 2.524,-0.574 1.936,-0.24 1.349,0.093 0.652,0.18 0,0"
             style="fill:#000000;fill-opacity:1;fill-rule:nonzero;stroke:none"
             id="path116" /></g><g
           id="g118"
           transform="translate(477.283,864.6899)"><path
             d="m 0,0 c -6.608,9.656 -17.79,13.383 -26.597,20.667 -3.712,3.568 -7.871,6.643 -12.367,9.149 -6.438,3.218 -13.723,4.235 -18.297,10.333 -2.033,2.711 -6.438,0.17 -4.405,-2.541 6.946,-9.317 19.142,-9.995 27.783,-17.279 3.9,-3.441 8.031,-6.611 12.367,-9.487 C -15.249,6.945 -8.641,3.727 -4.408,-2.541 -2.541,-5.252 1.863,-2.711 0,0"
             style="fill:#000000;fill-opacity:1;fill-rule:nonzero;stroke:none"
             id="path120" /></g><g
           id="g122"
           transform="translate(359.884,895.3519)"><path
             d="m 0,0 c 4.53,-7.018 10.553,-12.95 17.639,-17.372 7.087,-4.422 15.063,-7.224 23.358,-8.208 6.098,-0.847 12.705,-1.355 16.093,4.574 3.389,5.929 2.541,21.345 2.711,30.324 0,0.674 -0.268,1.32 -0.744,1.796 -0.477,0.477 -1.124,0.745 -1.797,0.745 -0.674,0 -1.321,-0.268 -1.797,-0.745 C 54.986,10.638 54.718,9.992 54.718,9.318 54.549,2.202 55.058,-5.082 54.211,-12.197 53.025,-22.7 43.707,-21.515 35.576,-19.482 22.755,-16.388 11.603,-8.509 4.404,2.541 2.541,5.252 -1.864,2.711 0,0"
             style="fill:#000000;fill-opacity:1;fill-rule:nonzero;stroke:none"
             id="path124" /></g><g
           id="g126"
           transform="translate(290.087,827.588)"><path
             d="M 0,0 C -0.17,-17.11 28.121,-17.11 31.001,-1.525 32.356,5.59 25.749,9.487 19.481,9.995 16.051,10.378 12.581,9.842 9.426,8.443 6.271,7.044 3.544,4.832 1.524,2.033 c -1.863,-2.71 2.541,-5.082 4.405,-2.541 1.087,1.467 2.456,2.702 4.027,3.633 1.571,0.93 3.312,1.539 5.121,1.788 2.71,0.339 8.47,0.339 10.333,-2.372 C 31.001,-5.929 4.912,-15.077 5.082,0 5.082,0.674 4.814,1.32 4.338,1.797 3.861,2.274 3.215,2.541 2.541,2.541 1.867,2.541 1.22,2.274 0.744,1.797 0.267,1.32 0,0.674 0,0"
             style="fill:#ffc800;fill-opacity:1;fill-rule:nonzero;stroke:none"
             id="path128" /></g><g
           id="g130"
           transform="translate(313.805,866.384)"><path
             d="m 0,0 c 2.88,-4.744 11.859,-3.219 16.094,-1.017 2.622,1.368 4.694,3.596 5.866,6.311 1.172,2.715 1.374,5.751 0.572,8.597 -0.18,0.651 -0.611,1.205 -1.199,1.538 -0.588,0.334 -1.284,0.421 -1.935,0.241 C 18.746,15.49 18.193,15.059 17.86,14.471 17.526,13.883 17.439,13.187 17.619,12.536 18.107,10.838 18.004,9.025 17.327,7.394 16.65,5.763 15.439,4.41 13.892,3.557 12.465,2.68 10.824,2.211 9.149,2.202 8.302,2.033 4.913,1.863 4.405,2.71 4.046,3.294 3.469,3.711 2.802,3.87 2.134,4.029 1.431,3.917 0.847,3.557 0.263,3.198 -0.154,2.621 -0.313,1.954 -0.472,1.287 -0.359,0.584 0,0"
             style="fill:#ffc800;fill-opacity:1;fill-rule:nonzero;stroke:none"
             id="path132" /></g><g
           id="g134"
           transform="translate(366.661,855.3719)"><path
             d="m 0,0 c -2.693,-0.646 -5.05,-2.269 -6.615,-4.553 -1.565,-2.285 -2.226,-5.069 -1.856,-7.814 0.678,-5.929 6.268,-10.333 12.028,-10.672 5.76,-0.339 10.165,4.066 9.826,10.334 -0.339,6.268 -2.033,15.246 -9.657,14.399 -3.218,-0.169 -3.218,-5.251 0,-5.082 3.219,0.17 8.81,-17.279 -1.524,-14.399 -6.099,1.863 -8.301,11.18 -0.847,12.874 C 4.404,-4.235 3.049,0.678 0,0"
             style="fill:#ffc800;fill-opacity:1;fill-rule:nonzero;stroke:none"
             id="path136" /></g><g
           id="g138"
           transform="translate(431.883,851.137)"><path
             d="M 0,0 C -9.319,2.71 -2.545,16.263 3.892,17.618 10.333,18.973 16.77,11.519 18.126,4.404 18.804,1.185 23.715,2.541 23.037,5.76 21.682,12.197 19.482,18.296 13.041,21.345 10.66,22.445 8.044,22.957 5.422,22.84 2.8,22.722 0.241,21.977 -2.034,20.668 -10.675,15.246 -13.046,-1.525 -1.356,-4.913 1.692,-5.76 3.048,-0.847 0,0"
             style="fill:#ffc800;fill-opacity:1;fill-rule:nonzero;stroke:none"
             id="path140" /></g><g
           id="g142"
           transform="translate(829.822,818.949)"><path
             d="m 0,0 c 0.674,0 1.32,0.267 1.796,0.744 0.479,0.477 0.745,1.123 0.745,1.797 0,0.674 -0.266,1.32 -0.745,1.797 C 1.32,4.814 0.674,5.082 0,5.082 -0.674,5.082 -1.32,4.814 -1.796,4.338 -2.275,3.861 -2.541,3.215 -2.541,2.541 c 0,-0.674 0.266,-1.32 0.745,-1.797 C -1.32,0.267 -0.674,0 0,0"
             style="fill:#ffc800;fill-opacity:1;fill-rule:nonzero;stroke:none"
             id="path144" /></g><g
           id="g146"
           transform="translate(1095.28,892.98)"><path
             d="m 0,0 c -8.47,14.061 -23.72,14.399 -38.11,11.011 -70.481,-16.771 -138.412,-41.166 -206.007,-66.916 -12.874,-1.525 -28.797,-2.202 -34.049,-16.263 -5.252,-14.061 6.774,-24.056 20.497,-24.225 17.619,-0.17 35.238,0.339 52.857,0.339 4.741,0 12.363,0.677 16.43,-2.542 4.067,-3.218 2.033,-16.093 1.696,-21.683 -1.707,-18.059 -4.538,-35.994 -8.47,-53.702 -3.389,-15.926 -11.352,-34.39 -7.626,-50.823 0.617,-3.066 2.264,-5.831 4.67,-7.832 2.402,-2.005 5.418,-3.126 8.545,-3.18 7.622,-0.17 13.722,4.575 19.819,8.808 14.4,10.334 28.293,21.345 41.845,32.868 25.583,21.852 53.023,43.705 74.203,70.135 10.37,13.188 19.77,27.116 28.12,41.673 8.3,13.891 17.11,27.613 24.06,42.182 C 5.42,-25.581 7.45,-12.875 0,0"
             style="fill:#ffc800;fill-opacity:1;fill-rule:nonzero;stroke:none"
             id="path148" /></g><g
           id="g150"
           transform="translate(925.198,797.6039)"><path
             d="m 0,0 c 17.126,7.474 33.563,16.43 49.127,26.766 2.712,1.863 0.171,6.268 -2.541,4.404 C 31.001,20.869 14.567,11.915 -2.541,4.404 -5.589,3.049 -3.048,-1.356 0,0"
             style="fill:#000000;fill-opacity:1;fill-rule:nonzero;stroke:none"
             id="path152" /></g><g
           id="g154"
           transform="translate(994.145,836.059)"><path
             d="m 0,0 c 16.395,10.77 33.485,20.447 51.165,28.968 15.41,7.454 31.5,13.384 44.72,24.734 2.54,2.033 -1.19,5.591 -3.56,3.558 C 78.605,45.74 61.495,39.811 45.735,32.018 29.075,23.844 12.955,14.621 -2.54,4.404 -5.252,2.541 -2.711,-1.864 0,0"
             style="fill:#000000;fill-opacity:1;fill-rule:nonzero;stroke:none"
             id="path156" /></g><g
           id="g158"
           transform="translate(860.652,780.494)"><path
             d="m 0,0 c -53.247,-44.397 -109.763,-84.72 -169.071,-120.618 -0.582,-0.362 -1.001,-0.937 -1.16,-1.604 -0.157,-0.667 -0.047,-1.37 0.315,-1.955 0.359,-0.582 0.934,-1.001 1.601,-1.16 0.667,-0.16 1.37,-0.047 1.955,0.312 59.557,36.327 116.399,76.92 170.086,121.466 C 6.267,-1.525 2.541,2.032 0,0"
             style="fill:#000000;fill-opacity:1;fill-rule:nonzero;stroke:none"
             id="path160" /></g><g
           id="g162"
           transform="translate(855.57,750.8489)"><path
             d="M 0,0 C -4.574,-7.115 -12.534,-12.03 -19.141,-17.112 L -42.52,-35.408 -88.091,-70.984 c -2.541,-2.033 1.185,-5.589 3.726,-3.555 l 48.112,37.438 23.379,18.297 C -6.608,-13.893 0,-9.319 4.404,-2.541 6.27,0.167 1.863,2.707 0,0"
             style="fill:#000000;fill-opacity:1;fill-rule:nonzero;stroke:none"
             id="path164" /></g><g
           id="g166"
           transform="translate(757.315,670.5469)"><path
             d="m 0,0 c -5.621,-1.636 -10.824,-4.468 -15.249,-8.301 -2.541,-2.203 1.189,-5.759 3.56,-3.555 3.821,3.19 8.264,5.553 13.044,6.944 0.65,0.178 1.203,0.611 1.537,1.2 0.334,0.585 0.422,1.281 0.241,1.934 -0.181,0.653 -0.61,1.206 -1.199,1.54 C 1.348,0.095 0.649,0.181 0,0"
             style="fill:#000000;fill-opacity:1;fill-rule:nonzero;stroke:none"
             id="path168" /></g><g
           id="g170"
           transform="translate(1075.8,788.795)"><path
             d="m 0,0 c -11.69,-23.886 -24.22,-47.435 -37.1,-70.813 -1.69,-2.711 2.71,-5.419 4.4,-2.541 12.88,23.378 25.25,46.984 37.11,70.813 C 5.93,0.338 1.52,2.88 0,0"
             style="fill:#000000;fill-opacity:1;fill-rule:nonzero;stroke:none"
             id="path172" /></g><g
           id="g174"
           transform="translate(1025.65,688.8439)"><path
             d="m 0,0 c -7.11,-9.993 -14.73,-19.99 -22.53,-29.646 -2.03,-2.54 1.53,-6.1 3.56,-3.559 8.13,9.997 15.93,20.16 23.38,30.664 C 6.44,0.17 2.04,2.711 0,0"
             style="fill:#000000;fill-opacity:1;fill-rule:nonzero;stroke:none"
             id="path176" /></g><g
           id="g178"
           transform="translate(775.441,831.4849)"><path
             d="m 0,0 c 30.266,10.165 60.873,19.764 91.817,28.8 3.052,1.016 1.696,5.929 -1.355,4.912 C 59.631,24.734 29.138,15.078 -1.356,4.913 -4.404,3.897 -3.049,-1.016 0,0"
             style="fill:#000000;fill-opacity:1;fill-rule:nonzero;stroke:none"
             id="path180" /></g><g
           id="g182"
           transform="translate(882.674,864.181)"><path
             d="m 0,0 c 3.74,1.631 7.782,2.439 11.859,2.372 3.219,0.169 3.219,5.251 0,5.082 C 6.877,7.498 1.951,6.397 -2.541,4.235 -5.419,3.049 -2.878,-1.356 0,0"
             style="fill:#000000;fill-opacity:1;fill-rule:nonzero;stroke:none"
             id="path184" /></g><g
           id="g186"
           transform="translate(913.337,718.9999)"><path
             d="m 0,0 c -3.19,-9.489 -5.792,-19.163 -7.793,-28.971 -0.845,-4.404 -3.048,-11.012 0.848,-14.397 3.897,-3.389 9.997,-1.189 13.723,1.015 8.3,4.911 15.415,12.197 22.871,18.126 2.541,2.204 -1.189,5.76 -3.73,3.726 L 12.537,-31.512 c -2.2,-2.193 -4.641,-4.127 -7.285,-5.76 -0.728,-0.759 -1.693,-1.256 -2.736,-1.412 -1.04,-0.152 -2.104,0.046 -3.024,0.564 -3.896,-0.677 -4.911,0.848 -2.881,4.745 1.93,10.873 4.705,21.579 8.304,32.019 C 5.93,1.693 1.018,3.048 0,0"
             style="fill:#ffffff;fill-opacity:1;fill-rule:nonzero;stroke:none"
             id="path188" /></g><g
           id="g190"
           transform="translate(955.862,703.752)"><path
             d="M 0,0 5.082,4.574 C 5.557,5.078 5.823,5.745 5.823,6.437 5.823,7.132 5.557,7.799 5.082,8.303 4.606,8.768 3.968,9.027 3.304,9.027 2.637,9.027 1.998,8.768 1.523,8.303 L -3.729,3.729 C -4.045,3.208 -4.18,2.597 -4.109,1.994 -4.038,1.387 -3.765,0.826 -3.332,0.397 -2.903,-0.036 -2.338,-0.309 -1.735,-0.38 -1.132,-0.451 -0.521,-0.316 0,0"
             style="fill:#ffffff;fill-opacity:1;fill-rule:nonzero;stroke:none"
             id="path192" /></g><g
           id="g194"
           transform="translate(831.345,810.817)"><path
             d="M 0,0 H 36.59 C 48.787,0 63.017,1.864 74.539,-3.049 77.417,-4.404 79.958,0 77.08,1.356 66.235,6.099 54.55,5.083 43.027,5.083 H 0 c -0.674,0 -1.32,-0.268 -1.799,-0.745 -0.475,-0.476 -0.745,-1.123 -0.745,-1.796 0,-0.674 0.27,-1.321 0.745,-1.797 C -1.32,0.268 -0.674,0 0,0"
             style="fill:#ffffff;fill-opacity:1;fill-rule:nonzero;stroke:none"
             id="path196" /></g><g
           id="g198"
           transform="translate(922.828,789.134)"><path
             d="m 0,0 v -10.504 c 0,-0.674 0.266,-1.319 0.742,-1.798 0.479,-0.476 1.125,-0.742 1.799,-0.742 0.674,0 1.32,0.266 1.796,0.742 0.475,0.479 0.745,1.124 0.745,1.798 V 0 c 0,0.674 -0.27,1.32 -0.745,1.797 C 3.861,2.273 3.215,2.541 2.541,2.541 1.867,2.541 1.221,2.273 0.742,1.797 0.266,1.32 0,0.674 0,0"
             style="fill:#ffffff;fill-opacity:1;fill-rule:nonzero;stroke:none"
             id="path200" /></g><g
           id="g202"
           transform="translate(1085.79,881.799)"><path
             d="m 0,0 c -0.06,-12.08 -2.97,-23.974 -8.47,-34.729 -1.52,-2.88 2.88,-5.421 4.41,-2.541 C 1.84,-25.725 4.97,-12.965 5.09,0 5.09,0.674 4.82,1.32 4.34,1.797 3.86,2.273 3.22,2.541 2.54,2.541 1.87,2.541 1.22,2.273 0.75,1.797 0.27,1.32 0,0.674 0,0"
             style="fill:#ffffff;fill-opacity:1;fill-rule:nonzero;stroke:none"
             id="path204" /></g><g
           id="g206"
           transform="translate(401.218,621.757)"><path
             d="m 0,0 c -60.954,-28.769 -118.655,-63.982 -172.118,-105.033 -26.131,-20 -51.182,-41.377 -75.047,-64.035 -12.198,-11.519 -24.734,-23.208 -35.746,-35.912 -8.131,-9.489 -17.787,-22.193 -18.296,-35.238 -0.508,-13.045 16.094,-14.908 26.936,-15.586 21.603,-1.274 43.278,-0.422 64.714,2.541 3.219,0.337 3.219,5.422 0,5.082 -16.605,-2.371 -33.375,-3.389 -50.145,-3.049 -8.09,-0.028 -16.176,0.369 -24.225,1.186 -4.913,0.507 -9.487,1.185 -11.181,6.437 -1.694,5.252 0.339,9.996 2.541,14.908 6.269,14.4 18.127,25.582 29.138,36.593 11.012,11.012 20.837,20.497 31.68,30.494 44.49,40.699 92.764,77.062 144.166,108.588 29.157,17.796 59.241,34.028 90.125,48.62 C 5.422,-3.049 2.88,1.355 0,0"
             style="fill:#000000;fill-opacity:1;fill-rule:nonzero;stroke:none"
             id="path208" /></g><g
           id="g210"
           transform="translate(519.633,475.052)"><path
             d="m 0,0 c 70.947,29.074 136.863,69.149 195.327,118.756 2.541,2.033 -1.015,5.589 -3.556,3.555 C 133.936,73.315 68.765,33.702 -1.356,4.912 -4.234,3.726 -3.049,-1.185 0,0"
             style="fill:#000000;fill-opacity:1;fill-rule:nonzero;stroke:none"
             id="path212" /></g><g
           id="g214"
           transform="translate(483.89,650.7269)"><path
             d="m 0,0 c 55.227,28.968 98.258,74.71 129.599,128.411 1.523,2.88 -2.881,5.421 -4.407,2.542 C 94.362,78.099 52.009,33.035 -2.711,4.404 -5.589,2.882 -3.049,-1.526 0,0"
             style="fill:#000000;fill-opacity:1;fill-rule:nonzero;stroke:none"
             id="path216" /></g><g
           id="g218"
           transform="translate(624.667,910.598)"><path
             d="m 0,0 c 9.997,-3.557 22.023,-7.623 27.275,-17.618 7.115,-13.214 -2.37,-27.783 -9.485,-38.625 -1.864,-2.71 2.54,-5.252 4.403,-2.541 7.964,12.028 16.771,26.936 10.504,41.674 C 26.427,-2.371 13.386,0.678 1.356,4.744 -1.693,5.93 -3.048,1.017 0,0"
             style="fill:#000000;fill-opacity:1;fill-rule:nonzero;stroke:none"
             id="path220" /></g><g
           id="g222"
           transform="translate(613.316,937.0259)"><path
             d="m 0,0 c 16.189,-0.602 32.112,-4.281 46.924,-10.842 3.052,-1.186 5.593,3.219 2.541,4.405 C 33.858,0.509 17.069,4.419 0,5.082 -3.218,5.251 -3.218,0.169 0,0"
             style="fill:#000000;fill-opacity:1;fill-rule:nonzero;stroke:none"
             id="path224" /></g><g
           id="g226"
           transform="translate(459.496,856.897)"><path
             d="m 0,0 c 0.575,-16.373 5.39,-32.316 13.971,-46.272 8.581,-13.956 20.635,-25.446 34.986,-33.349 2.882,-1.526 5.422,2.88 2.544,4.404 -13.548,7.495 -24.932,18.353 -33.062,31.528 C 10.305,-30.515 5.706,-15.468 5.082,0 5.082,0.674 4.816,1.32 4.337,1.797 3.861,2.274 3.215,2.541 2.541,2.541 1.867,2.541 1.221,2.274 0.745,1.797 0.266,1.32 0,0.674 0,0"
             style="fill:#ffc800;fill-opacity:1;fill-rule:nonzero;stroke:none"
             id="path228" /></g><g
           id="g230"
           transform="translate(176.412,871.8049)"><path
             d="m 0,0 c 2.329,-0.621 4.712,-1.018 7.115,-1.186 h 2.88 l 0.339,-2.88 c 0.13,-2.118 0.47,-4.218 1.017,-6.268 0.622,2.04 1.019,4.142 1.185,6.268 v 2.88 h 2.88 c 2.458,0.187 4.895,0.583 7.285,1.186 -2.314,0.688 -4.703,1.087 -7.115,1.186 h -2.88 V 4.235 C 12.48,6.978 12.026,9.698 11.351,12.367 10.663,9.707 10.266,6.98 10.165,4.235 V 1.186 H 7.115 C 4.702,1.103 2.31,0.704 0,0 m 11.351,-19.482 c -4.575,0 -6.607,5.929 -7.454,11.858 -6.438,0.847 -12.875,2.711 -12.875,7.624 0,4.912 6.268,6.776 12.536,7.623 0.678,6.099 2.541,13.722 7.793,13.722 5.251,0 7.115,-7.623 7.792,-13.722 C 25.411,6.776 31.849,4.912 31.849,0 c 0,-4.913 -6.438,-6.777 -12.875,-7.624 -0.847,-5.929 -2.88,-11.858 -7.623,-11.858"
             style="fill:#000000;fill-opacity:1;fill-rule:nonzero;stroke:none"
             id="path232" /></g><g
           id="g234"
           transform="translate(113.395,949.3929)"><path
             d="m 0,0 c 0.847,-1.355 7.454,-5.082 23.209,-6.268 h 2.88 l 0.339,-2.88 c 1.185,-14.061 4.574,-20.329 5.929,-21.176 1.355,-0.847 4.744,7.115 6.099,21.176 v 2.88 h 2.88 C 57.09,-5.082 63.697,-1.355 64.714,0 65.73,1.355 57.26,4.913 41.674,6.099 l -2.88,0.339 v 2.88 C 37.778,25.072 34.22,33.374 32.357,34.39 30.493,35.406 26.936,25.072 26.089,9.318 V 6.438 L 23.039,6.099 C 7.285,4.913 0.847,1.355 0,0 m 32.357,-37.269 c -8.301,0 -11.35,15.416 -12.536,24.564 -9.656,0.847 -26.767,3.896 -26.767,12.705 0,8.809 16.772,11.689 26.428,12.706 0.847,9.317 3.557,28.461 12.875,28.461 9.317,0 12.198,-19.144 12.875,-28.461 C 55.058,11.689 71.66,8.64 71.66,0 c 0,-8.64 -16.941,-11.858 -26.767,-12.705 -1.186,-9.148 -4.235,-24.564 -12.536,-24.564"
             style="fill:#ffc800;fill-opacity:1;fill-rule:nonzero;stroke:none"
             id="path236" /></g><g
           id="g238"
           transform="translate(882.165,561.6179)"><path
             d="m 0,0 c 2.382,-0.674 4.82,-1.125 7.286,-1.356 h 2.881 v -2.878 c 0.199,-2.122 0.597,-4.219 1.186,-6.267 0.518,2.055 0.855,4.152 1.015,6.267 l 0.34,2.878 h 2.878 c 2.466,0.231 4.904,0.682 7.286,1.356 -2.343,0.521 -4.72,0.862 -7.116,1.018 L 12.708,1.355 V 4.237 C 12.619,6.984 12.222,9.712 11.519,12.367 10.82,9.712 10.423,6.984 10.334,4.237 V 1.355 L 7.286,1.018 C 4.834,0.869 2.399,0.529 0,0 m 11.519,-19.649 c -4.57,0 -6.604,5.93 -7.452,11.856 C -2.37,-6.945 -8.977,-4.911 -8.977,0 c 0,4.915 6.437,6.778 12.707,7.626 0.678,6.096 2.541,13.719 7.789,13.719 5.252,0 7.119,-7.623 7.797,-13.719 C 25.583,6.778 32.02,4.744 32.02,0 c 0,-4.741 -6.608,-6.945 -13.045,-7.793 -0.848,-5.926 -2.881,-11.856 -7.456,-11.856"
             style="fill:#000000;fill-opacity:1;fill-rule:nonzero;stroke:none"
             id="path240" /></g><g
           id="g242"
           transform="translate(568.933,428.124)"><path
             d="m 0,0 c 0.848,-1.355 7.456,-4.911 23.208,-6.096 l 2.882,-0.341 v -2.711 c 1.355,-14.23 4.744,-20.327 6.1,-21.175 1.352,-0.848 4.741,6.945 6.096,21.175 v 2.711 l 2.882,0.341 C 56.92,-4.911 63.528,-1.355 64.546,0 65.561,1.356 57.09,5.082 41.505,6.271 H 38.627 V 9.319 C 37.608,24.905 34.053,33.205 32.19,34.39 30.323,35.576 26.767,24.905 25.919,9.319 V 6.271 H 22.871 C 7.285,5.082 0.848,1.526 0,0 m 32.356,-37.267 c -8.3,0 -11.348,15.585 -12.533,24.563 -9.656,1.015 -26.768,4.067 -26.768,12.704 0,8.641 16.771,11.69 26.427,12.708 0.848,9.486 3.559,28.627 12.874,28.627 9.319,0 12.197,-19.141 12.875,-28.627 C 55.057,11.69 71.661,8.812 71.661,0 71.661,-8.807 54.72,-11.689 44.894,-12.704 43.709,-21.682 40.66,-37.267 32.356,-37.267"
             style="fill:#ffc800;fill-opacity:1;fill-rule:nonzero;stroke:none"
             id="path244" /></g><g
           id="g246"
           transform="translate(960.603,945.666)"><path
             d="m 0,0 c 2.31,-0.704 4.702,-1.103 7.115,-1.186 h 2.882 l 0.337,-2.879 c 0.131,-2.119 0.472,-4.218 1.018,-6.269 0.621,2.04 1.019,4.142 1.185,6.269 v 2.879 h 2.882 c 2.466,0.103 4.911,0.501 7.282,1.186 -2.332,0.606 -4.713,1.002 -7.115,1.186 h -2.878 v 3.05 C 12.498,6.925 12.044,9.591 11.352,12.198 10.646,9.599 10.248,6.927 10.167,4.236 V 1.186 H 7.285 C 4.826,1.029 2.385,0.632 0,0 m 11.352,-19.481 c -4.574,0 -6.607,5.929 -7.456,11.858 -6.437,0.678 -12.874,2.711 -12.874,7.623 0,4.913 6.27,6.777 12.537,7.624 0.678,6.099 2.541,13.722 7.793,13.722 5.252,0 7.115,-7.623 7.793,-13.722 C 25.412,6.777 31.849,4.744 31.849,0 c 0,-4.743 -6.437,-6.945 -12.874,-7.623 -0.849,-5.929 -2.882,-11.858 -7.623,-11.858"
             style="fill:#000000;fill-opacity:1;fill-rule:nonzero;stroke:none"
             id="path248" /></g><g
           id="g250"
           transform="translate(527.767,341.726)"><path
             d="m 0,0 h 205.662 c 0.674,0 1.32,0.27 1.795,0.746 0.476,0.475 0.745,1.124 0.745,1.799 0,0.67 -0.269,1.32 -0.745,1.795 -0.475,0.476 -1.121,0.746 -1.795,0.746 H 0 C -0.674,5.086 -1.32,4.816 -1.799,4.34 -2.274,3.865 -2.54,3.215 -2.54,2.545 -2.54,1.87 -2.274,1.221 -1.799,0.746 -1.32,0.27 -0.674,0 0,0"
             style="fill:#000000;fill-opacity:1;fill-rule:nonzero;stroke:none"
             id="path252" /></g><g
           id="g254"
           transform="translate(762.737,347.149)"><path
             d="m 0,0 c 20.274,1.835 40.654,2.229 60.984,1.185 3.389,-0.17 3.222,4.912 0,5.082 C 40.654,7.314 20.274,6.916 0,5.082 -3.222,4.745 -3.389,-0.341 0,0"
             style="fill:#000000;fill-opacity:1;fill-rule:nonzero;stroke:none"
             id="path256" /></g><g
           id="g258"
           transform="translate(636.189,308.8629)"><path
             d="m 0,0 c 110.001,-2.598 220.002,-3.726 330.006,-3.389 0.674,0 1.32,0.27 1.795,0.745 0.476,0.476 0.746,1.121 0.746,1.796 0,0.674 -0.27,1.32 -0.746,1.799 -0.475,0.475 -1.121,0.741 -1.795,0.741 C 219.892,1.469 109.887,2.597 0,5.081 -0.674,5.081 -1.32,4.815 -1.799,4.34 -2.274,3.861 -2.541,3.215 -2.541,2.541 -2.541,1.866 -2.274,1.22 -1.799,0.745 -1.32,0.269 -0.674,0 0,0"
             style="fill:#000000;fill-opacity:1;fill-rule:nonzero;stroke:none"
             id="path260" /></g><g
           id="g262"
           transform="translate(493.206,765.416)"><path
             d="m 0,0 c 9.148,-31.342 31.342,-55.905 60.987,-69.458 4.233,-1.863 15.078,-6.774 10.674,-13.889 -2.374,-3.559 -8.304,-3.219 -11.859,-3.052 -3.56,0.17 -10.845,1.019 -13.386,-4.063 -2.541,-5.085 2.541,-8.982 5.93,-12.537 3.389,-3.56 8.641,-8.812 6.948,-14.06 -1.696,-5.252 -12.878,-4.574 -17.452,-0.341 l -3.048,-4.067 c 5.252,-2.54 8.3,-6.944 1.185,-9.993 -4.404,-1.863 -9.656,0.678 -12.367,4.234 l -3.556,-3.389 c 2.2,-1.522 5.76,-4.233 4.912,-7.282 -0.845,-3.052 -5.082,-3.559 -8.301,-0.678 -3.218,2.878 -6.944,7.96 -10.163,11.856 -7.793,9.827 -14.908,20.16 -19.145,32.02 -1.015,3.048 -5.93,1.863 -4.911,-1.356 4.017,-10.603 9.617,-20.543 16.6,-29.475 4.915,-6.27 10.675,-16.263 18.297,-19.822 4.404,-2.034 10.841,-1.693 12.537,3.726 1.693,5.422 -1.863,11.859 -7.285,15.418 -2.033,1.356 -4.911,-1.525 -3.389,-3.559 5.252,-6.774 14.908,-9.826 22.53,-4.911 7.626,4.911 3.052,14.06 -4.403,17.619 -2.371,1.185 -5.252,-1.867 -3.049,-4.067 2.619,-2.48 5.855,-4.216 9.369,-5.018 3.516,-0.805 7.186,-0.653 10.621,0.444 5.589,2.033 9.826,5.759 7.793,11.689 -1.853,4.301 -4.433,8.258 -7.623,11.689 -0.848,1.186 -4.915,4.404 -5.252,5.589 -2.541,7.286 3.896,5.423 6.608,5.252 5.759,-0.337 12.874,0.171 16.263,5.59 3.385,5.422 0.337,12.537 -4.744,16.433 -5.082,3.897 -17.449,8.641 -25.242,13.893 C 26.182,-41.931 11.632,-21.814 4.911,1.355 4.823,1.678 4.674,1.98 4.468,2.242 4.262,2.509 4.006,2.729 3.715,2.892 3.424,3.059 3.101,3.165 2.771,3.208 2.438,3.247 2.101,3.222 1.778,3.133 1.455,3.044 1.153,2.892 0.891,2.686 0.625,2.48 0.405,2.225 0.241,1.934 0.074,1.643 -0.032,1.323 -0.071,0.99 -0.114,0.66 -0.089,0.323 0,0"
             style="fill:#000000;fill-opacity:1;fill-rule:nonzero;stroke:none"
             id="path264" /></g><g
           id="g266"
           transform="translate(560.292,891.1169)"><path
             d="m 0,0 c 4.261,1.456 8.715,2.256 13.215,2.372 4.744,0 8.641,-3.05 11.519,-6.438 2.881,-3.388 3.729,-8.809 3.051,-13.383 -0.135,-2.679 -1.146,-5.239 -2.881,-7.285 -2.541,-2.371 -6.1,-2.71 -7.115,1.356 -1.015,4.066 0.848,8.978 -3.726,12.366 -4.574,3.389 -9.997,1.186 -14.571,0.509 -4.574,-0.678 -1.863,-5.252 1.356,-4.913 3.218,0.339 11.689,1.863 12.03,-5.082 0.166,-2.203 -0.508,-4.405 0.166,-6.607 0.369,-1.221 1.072,-2.313 2.03,-3.152 0.958,-0.839 2.136,-1.391 3.393,-1.592 7.455,-1.694 13.044,5.929 14.23,12.367 C 33.882,-13.044 31.849,-3.05 24.904,2.71 17.959,8.47 7.963,7.454 -1.353,4.913 -4.404,4.066 -3.049,-0.847 0,0"
             style="fill:#000000;fill-opacity:1;fill-rule:nonzero;stroke:none"
             id="path268" /></g><g
           id="g270"
           transform="translate(543.86,863.843)"><path
             d="M 0,0 C -0.032,-4.839 -0.83,-9.643 -2.37,-14.231 -3.389,-17.28 1.523,-18.635 2.541,-15.585 4.22,-10.561 5.078,-5.298 5.082,0 5.252,3.218 0.171,3.218 0,0"
             style="fill:#000000;fill-opacity:1;fill-rule:nonzero;stroke:none"
             id="path272" /></g><g
           id="g274"
           transform="translate(588.755,890.777)"><path
             d="M 0,0 C 3.783,2.203 7.75,4.073 11.856,5.59 18.634,7.623 26.09,4.744 24.734,-3.388 23.379,-11.519 12.875,-16.602 6.437,-21.006 3.726,-22.87 6.267,-27.275 8.978,-25.411 18.127,-19.143 34.22,-10.842 29.308,2.88 24.394,16.602 6.945,9.148 -2.711,4.405 -5.592,2.88 -3.052,-1.525 0,0"
             style="fill:#000000;fill-opacity:1;fill-rule:nonzero;stroke:none"
             id="path276" /></g><g
           id="g278"
           transform="translate(581.807,837.4139)"><path
             d="m 0,0 c 11.86,4.743 27.953,6.776 33.375,19.99 1.693,4.066 2.204,9.487 -1.356,12.367 -3.555,2.88 -13.215,1.355 -18.296,-0.339 -5.082,-1.694 -1.693,-5.929 1.355,-4.913 2.573,1.118 5.33,1.75 8.134,1.864 2.033,0 5.419,-0.848 6.437,-3.05 C 30.664,23.717 24.397,15.755 21.686,14.06 14.908,9.317 6.271,7.962 -1.352,4.913 -4.404,3.727 -3.048,-1.186 0,0"
             style="fill:#000000;fill-opacity:1;fill-rule:nonzero;stroke:none"
             id="path280" /></g></g></g></g></svg>
